<?xml version="1.0" encoding="utf-8"?>
<!-- Generator: Adobe Illustrator 25.4.1, SVG Export Plug-In . SVG Version: 6.00 Build 0)  -->
<svg version="1.1" id="Capa_1" xmlns="http://www.w3.org/2000/svg" xmlns:xlink="http://www.w3.org/1999/xlink" x="0px" y="0px"
	 viewBox="0 0 289.6 289.5" style="enable-background:new 0 0 289.6 289.5;" xml:space="preserve">
<style type="text/css">
	.st0{fill:#CED7DB;}
	.st1{fill:#263238;}
	.st2{fill:#96A8B2;}
	.st3{fill:#73F804;}
	.st4{fill:#D0C3E8;}
	.st5{fill:#7D56BF;}
	.st6{fill:#FB3D00;}
	.st7{fill:#341E93;}
	.st8{fill:#FEE83A;}
</style>
<path class="st0" d="M-187,234h-64.8c-3.2,0-5.8-2.6-5.8-5.8v-64.8c0-3.2,2.6-5.8,5.8-5.8h64.8c3.2,0,5.8,2.6,5.8,5.8v64.8
	C-181.3,231.4-183.8,234-187,234z"/>
<path class="st1" d="M-192.3,230.5h-54.6c-3.2,0-5.8-2.6-5.8-5.8v-45.1c0-3.2,2.6-5.8,5.8-5.8h54.6c3.2,0,5.8,2.6,5.8,5.8v45.1
	C-186.6,228-189.1,230.5-192.3,230.5z"/>
<circle class="st2" cx="-248.7" cy="166.2" r="3.2"/>
<circle class="st2" cx="-238.6" cy="166.2" r="3.2"/>
<g>
	<path class="st3" d="M-235.7,208.9l-7.1-7.7l7.1-7.7h7.5l-7.1,7.7l7.1,7.7H-235.7z"/>
	<path class="st3" d="M-213.6,187.7l-7.2,30.7h-4.5l7.2-30.7H-213.6z"/>
	<path class="st3" d="M-211.1,193.4h7.5l7.1,7.7l-7.1,7.7h-7.5l7.1-7.7L-211.1,193.4z"/>
</g>
<g>
	<path class="st4" d="M111.1,239.4c-3.5,2.9-6,6.9-10,9.2c-13.2-13.3-26.4-26.6-39.7-39.9c-6.7-6.7-12.9-13.8-20.2-19.9
		c2-4.3,6.2-6.7,9.2-10.1c1.2-1.1,2.5-2.1,3.7-3.2c17.8-17.8,35.6-35.6,53.4-53.5c1.3-1.3,2.3-2.7,3.5-4.1
		c23.2-23.1,46.6-46,69.4-69.5c8.9-9.2,19.1-15.1,31.1-18.6c9.4-2.8,18.7-5.8,28.4-7.1c8.4,9.7,17.6,18.6,27.1,27.2
		c-2.8,16.6-7.2,32.7-15.1,47.6c-1.4,2.7-3.6,4.8-5.7,6.9c-24.8,24.8-49.5,49.6-74.3,74.5C151.1,198.5,131,218.9,111.1,239.4z
		 M173.2,102c-0.1,7.7,6.5,14.4,14.2,14.5c7.7,0.1,14.4-6.5,14.5-14.2c0.1-7.8-6.4-14.3-14.2-14.4C179.8,87.8,173.2,94.2,173.2,102z
		 M130.9,173c0-7.8-6.4-14.2-14.3-14.3c-7.8,0-14.4,6.5-14.4,14.2c0,7.7,6.6,14.3,14.4,14.3C124.4,187.3,130.9,180.8,130.9,173z
		 M137.9,137.8c0.1,7.9,6.5,14.1,14.4,14.1c7.9-0.1,14.1-6.4,14-14.4c-0.1-7.9-6.5-14.2-14.4-14.1
		C144,123.4,137.8,129.8,137.9,137.8z"/>
	<path class="st5" d="M111.1,239.4c20-20.5,40-40.9,60.8-60.6c-1.4,13.5-4.4,26.8-6.3,40.3c0,0.2-0.1,0.3-0.1,0.5
		c0.1,14.6-6.9,25.2-17.8,34.2c-6.4,5.3-12,11.5-17.6,17.6c-2.8,3-3.8,2.2-5.1-1.1c-3.5-8.6-7.2-17.1-10.9-25.6
		C113.1,242.7,112.8,240.6,111.1,239.4z"/>
	<path class="st5" d="M111,117.8c-1.2,1.4-2.3,2.8-3.5,4.1c-17.8,17.8-35.6,35.7-53.4,53.5c-1.2,1.2-2.5,2.2-3.7,3.2
		c-6.1-4.3-13.5-6.2-20.2-9.4c-3.9-1.9-7.9-3.5-11.9-5.1c-2.2-0.8-2.6-1.6-0.8-3.4c10.7-10.6,21.4-21.3,32.1-32c1-1,2.1-1.5,3.5-1.7
		c18.5-3.1,37-6.1,55.5-9.1C109.3,117.7,110.1,117.8,111,117.8z"/>
	<path class="st6" d="M80.3,248.6c-3.4,6.3-9.1,9.6-15.5,11.8c-13.1,4.6-26.7,6.7-40.4,8.4c-3.1,0.4-4-0.3-3.6-3.6
		c1.7-13.7,3.8-27.3,8.5-40.4c2.3-6.4,5.5-12.1,11.9-15.4c3.5,3.5,7,7,10.5,10.5c-3.6,1.8-7,3.8-8.5,8c-2,5.9-2.4,12-2.5,18.2
		c0,2.6,1.4,2.9,3.5,2.9c5.2,0,10.3-0.6,15.3-1.8c5.1-1.3,8.6-4.2,9.9-9.4C73.4,241,77,244.6,80.3,248.6z"/>
	<path class="st5" d="M80.3,248.6c-3.3-3.9-7-7.5-10.8-10.9c-5.9-5.9-11.9-11.9-17.8-17.8c-3.5-3.5-7-7-10.5-10.5
		c-0.7-6.9-0.7-13.7,0-20.6c7.3,6.1,13.5,13.2,20.2,19.9c13.3,13.3,26.5,26.6,39.7,39.9C94.1,249.2,87.2,249.2,80.3,248.6z"/>
	<path class="st5" d="M267,49.8c-9.5-8.6-18.7-17.5-27.1-27.2c10.2-3,20.7-4.3,31-6.2c2.4-0.4,2.5,0.5,2.2,2.4
		C271.4,29.2,270.1,39.7,267,49.8z"/>
	<path class="st7" d="M173.2,102c0.1-7.8,6.7-14.2,14.5-14.1c7.8,0.1,14.3,6.6,14.2,14.4c-0.1,7.7-6.8,14.3-14.5,14.2
		C179.7,116.4,173.1,109.7,173.2,102z"/>
	<path class="st7" d="M130.9,173c0,7.8-6.5,14.3-14.3,14.3c-7.7,0-14.3-6.6-14.4-14.3c0-7.8,6.5-14.2,14.4-14.2
		C124.5,158.8,130.9,165.2,130.9,173z"/>
	<path class="st7" d="M137.9,137.8c-0.1-8,6.1-14.4,14-14.5c7.9-0.1,14.3,6.1,14.4,14.1c0.1,8-6.1,14.4-14,14.4
		C144.3,151.9,138,145.7,137.9,137.8z"/>
	<path class="st8" d="M51.7,219.8c5.9,5.9,11.9,11.9,17.8,17.8c-1.4,5.2-4.8,8.1-9.9,9.4c-5,1.3-10.1,1.8-15.3,1.8
		c-2.1,0-3.5-0.4-3.5-2.9c0.1-6.2,0.5-12.3,2.5-18.2C44.7,223.6,48.1,221.7,51.7,219.8z"/>
</g>
<g>
	<path class="st5" d="M233,63.5l4.1,4.1c0.2,0.2,0.2,0.5,0,0.7l-16.6,16.6c-0.2,0.2-0.5,0.2-0.7,0l-4.2-4.2
		c-0.1-0.1-0.2-0.3-0.1-0.5l4.3-14.8l-9.4,9.4c-0.2,0.2-0.5,0.2-0.7,0l-4.1-4.1c-0.2-0.2-0.2-0.5,0-0.7l16.6-16.6
		c0.2-0.2,0.5-0.2,0.7,0l4.2,4.2c0.1,0.1,0.2,0.3,0.1,0.4l-3.4,14l8.5-8.5C232.5,63.4,232.8,63.4,233,63.5z"/>
</g>
<path class="st4" d="M190.2,47.9c5,3.6,16.9,4.5,32.8,19.7c5.8,5.5,18.9,29.1,20.6,31.8c0.1-0.2,0,0,0.1-0.2
	c0.2-0.3,0.2-0.7-0.1-1.1c-38.5-43.5-54.8-52.2-53.1-50.5C190.7,47.7,189.6,47.5,190.2,47.9z"/>
</svg>
