<?xml version="1.0" encoding="utf-8"?>
<!-- Generator: Adobe Illustrator 25.4.1, SVG Export Plug-In . SVG Version: 6.00 Build 0)  -->
<svg version="1.1" id="Capa_1" xmlns="http://www.w3.org/2000/svg" xmlns:xlink="http://www.w3.org/1999/xlink" x="0px" y="0px"
	 viewBox="0 0 75.8 75.3" style="enable-background:new 0 0 75.8 75.3;" xml:space="preserve">
<style type="text/css">
	.st0{fill:#FDFDFD;}
	.st1{fill:#BADDFA;}
	.st2{fill:#485D66;}
	.st3{fill:#9AB1C2;}
	.st4{fill:#64B4F5;}
	.st5{fill:#72BBF6;}
	.st6{fill:#68B6F5;}
	.st7{fill:#64B5F5;}
	.st8{fill:#F8F8F8;}
	.st9{fill:#EFDE3E;}
	.st10{fill:#89C04A;}
</style>
<g>
	<path class="st0" d="M68.4,23.3c0-3.5,0.1-7,0-10.6C68.4,9.1,66.6,7,62.7,7c-16.5,0-33,0-49.6,0C9.2,7,7.4,9,7.3,12.8
		c-0.1,3.5-0.1,7-0.1,10.6c-0.1,0.7-0.1,1.3-0.2,2c0,1,0,2,0,3c0,10.6-0.1,21.1,0,31.7c0.1,6.1,2,8.2,7.5,8.3
		c15.6,0.1,31.1,0.1,46.7,0c5.3,0,7.4-2.1,7.5-7.4c0.1-11.9,0-23.8,0-35.7C68.6,24.5,68.5,23.9,68.4,23.3z"/>
	<path class="st1" d="M68.7,25.1c0,11.9,0.1,23.8,0,35.7c0,5.3-2.1,7.4-7.5,7.4c-15.6,0.1-31.1,0.1-46.7,0C9,68.2,7.1,66.1,7,60
		c-0.1-10.6,0-21.1,0-31.7c0.9-1,0.9-2,0-3c0.1-0.7,0.1-1.3,0.2-2c1.1,0.1,2.1,0.4,3.2,0.4c19.2,0,38.4,0,57.5,0
		C68,24.3,68.1,24.8,68.7,25.1z M12.6,45.8c0,4.2,0,8.4,0,12.6c0,1.9,0.7,2.7,2.6,2.7c6.8-0.1,13.5,0,20.3,0c1.7,0,2.4-0.7,2.4-2.4
		c0-8.4-0.1-16.8,0-25.2c0-2.2-1.1-2.7-3-2.7c-6.5,0.1-13,0.1-19.5,0c-2.1,0-2.9,0.7-2.9,2.8C12.7,37.7,12.6,41.8,12.6,45.8z
		 M52.8,47.9c2.6,0,5.1,0,7.7,0c1.5,0,2.7-0.2,2.6-2.1c-0.1-1.7-1.2-1.9-2.5-1.9c-5.1,0-10.3,0-15.4,0c-1.3,0-2.4,0.2-2.4,1.9
		c0,1.6,0.9,2.1,2.3,2.1C47.7,47.9,50.2,47.9,52.8,47.9z M52.8,34.1c2.6,0,5.1,0,7.7,0c1.2,0,2.6,0.1,2.6-1.7c0-1.6-1.2-1.5-2.3-1.6
		c-5.1,0-10.3,0-15.4,0c-1.1,0-2.3,0-2.4,1.5c-0.1,1.9,1.3,1.7,2.5,1.7C47.9,34.1,50.3,34.1,52.8,34.1z M52.7,40.7
		C52.7,40.7,52.7,40.7,52.7,40.7c2.8,0,5.7,0,8.5,0c1.1,0,1.8-0.4,1.8-1.6c0-1.3-0.8-1.6-1.9-1.6c-5.4,0-10.8,0-16.3,0
		c-1,0-1.9,0.2-2,1.4c-0.1,1.5,0.9,1.8,2.1,1.8C47.6,40.7,50.1,40.7,52.7,40.7z M53.2,51.2c-2.7,0-5.4,0-8.1,0
		c-1.2,0-2.2,0.2-2.1,1.8c0.1,1.3,0.9,1.5,2,1.5c5.4,0,10.8,0,16.2,0c1,0,1.9-0.3,1.9-1.5c0.1-1.5-1-1.7-2.2-1.7
		C58.3,51.2,55.7,51.2,53.2,51.2z M52.8,61c2.6,0,5.1,0,7.7,0c1.2,0,2.6,0.1,2.6-1.7c0-1.6-1.2-1.5-2.3-1.5c-5.1,0-10.3,0-15.4,0
		c-1.1,0-2.3-0.1-2.4,1.5c-0.1,1.9,1.3,1.7,2.5,1.7C47.9,61.1,50.3,61,52.8,61z"/>
	<path class="st2" d="M67.9,23.7c-19.2,0-38.4,0-57.5,0c-1.1,0-2.1-0.3-3.2-0.4c0-3.5,0.1-7,0.1-10.6C7.4,9,9.2,7,13.1,7
		c16.5,0,33,0,49.6,0c3.9,0,5.7,2.1,5.7,5.8c0.1,3.5,0,7,0,10.6C68.2,23.3,68,23.5,67.9,23.7z M48.9,18.7c3.8,0,7.6-0.1,11.4,0
		c2.7,0.1,3.1-1.3,3.1-3.5c0-2.2-0.6-3.2-3-3.2c-7.6,0.1-15.1,0.1-22.7,0c-2.3,0-3.1,0.8-3.1,3.1c0.1,2.1,0.2,3.7,3,3.6
		C41.3,18.6,45.1,18.7,48.9,18.7z M29.5,15.2c-0.4-2-1.5-3.2-3.6-3.1c-2.1,0.1-3.3,1.4-3.2,3.3c0.1,2.2,1.4,3.4,3.7,3.3
		C28.4,18.5,29.2,17,29.5,15.2z M19.2,15.3c-0.4-1.6-1.2-3.1-3.3-3.1c-1.9,0-3,1.1-3.2,2.9c-0.2,2,1,3.4,3,3.5
		C17.7,18.8,18.8,17.5,19.2,15.3z"/>
	<path class="st1" d="M7,25.3c0.9,1,1,2,0,3C7.1,27.3,7.1,26.3,7,25.3z"/>
	<path class="st3" d="M67.9,23.7c0.1-0.2,0.2-0.4,0.5-0.4c0.1,0.6,0.2,1.2,0.3,1.7C68.1,24.8,68,24.3,67.9,23.7z"/>
	<path class="st4" d="M12.6,45.8c0-4.1,0.1-8.1,0-12.2c-0.1-2.1,0.8-2.9,2.9-2.8c6.5,0.1,13,0.1,19.5,0c1.9,0,3,0.4,3,2.7
		c-0.1,8.4-0.1,16.8,0,25.2c0,1.7-0.7,2.4-2.4,2.4c-6.8,0-13.5-0.1-20.3,0c-1.9,0-2.6-0.8-2.6-2.7C12.7,54.2,12.6,50,12.6,45.8z"/>
	<path class="st5" d="M52.8,47.9c-2.6,0-5.1,0-7.7,0c-1.4,0-2.3-0.4-2.3-2.1c0-1.7,1.1-1.9,2.4-1.9c5.1,0,10.3,0,15.4,0
		c1.3,0,2.4,0.1,2.5,1.9c0.1,1.9-1.2,2.2-2.6,2.1C57.9,47.9,55.4,47.9,52.8,47.9z"/>
	<path class="st6" d="M52.8,34.1c-2.4,0-4.9,0-7.3,0c-1.2,0-2.6,0.1-2.5-1.7c0.1-1.5,1.3-1.5,2.4-1.5c5.1,0,10.3,0,15.4,0
		c1.1,0,2.3,0,2.3,1.6c0.1,1.9-1.4,1.7-2.6,1.7C57.9,34.2,55.3,34.1,52.8,34.1z"/>
	<path class="st7" d="M52.7,40.7c-2.6,0-5.1,0-7.7,0c-1.2,0-2.2-0.3-2.1-1.8c0.1-1.3,1-1.4,2-1.4c5.4,0,10.8,0,16.3,0
		c1,0,1.9,0.3,1.9,1.6c0,1.3-0.8,1.6-1.8,1.6C58.4,40.7,55.5,40.7,52.7,40.7C52.7,40.7,52.7,40.7,52.7,40.7z"/>
	<path class="st6" d="M53.2,51.2c2.6,0,5.1,0,7.7,0c1.2,0,2.2,0.2,2.2,1.7c0,1.3-0.9,1.5-1.9,1.5c-5.4,0-10.8,0-16.2,0
		c-1,0-1.9-0.2-2-1.5c-0.1-1.5,1-1.8,2.1-1.8C47.8,51.2,50.5,51.2,53.2,51.2z"/>
	<path class="st7" d="M52.8,61c-2.4,0-4.9,0-7.3,0c-1.2,0-2.6,0.1-2.5-1.7c0.1-1.6,1.3-1.5,2.4-1.5c5.1,0,10.3,0,15.4,0
		c1.1,0,2.3,0,2.3,1.5c0.1,1.9-1.4,1.7-2.6,1.7C57.9,61.1,55.3,61,52.8,61z"/>
	<path class="st8" d="M48.9,18.7c-3.8,0-7.6-0.1-11.4,0c-2.8,0.1-2.9-1.5-3-3.6c-0.1-2.3,0.8-3.1,3.1-3.1c7.6,0.1,15.1,0.1,22.7,0
		c2.4,0,3,1,3,3.2c0,2.2-0.4,3.6-3.1,3.5C56.4,18.6,52.6,18.7,48.9,18.7z"/>
	<path class="st9" d="M29.5,15.2c-0.2,1.8-1,3.3-3.1,3.5c-2.2,0.2-3.6-1.1-3.7-3.3c-0.1-1.9,1.2-3.2,3.2-3.3
		C28,12,29,13.2,29.5,15.2z"/>
	<path class="st10" d="M19.2,15.3c-0.4,2.2-1.5,3.5-3.5,3.3c-2-0.2-3.2-1.5-3-3.5c0.2-1.8,1.3-2.9,3.2-2.9
		C18,12.2,18.8,13.6,19.2,15.3z"/>
</g>
</svg>
