<?xml version="1.0" encoding="utf-8"?>
<!-- Generator: Adobe Illustrator 25.4.1, SVG Export Plug-In . SVG Version: 6.00 Build 0)  -->
<svg version="1.1" id="Capa_1" xmlns="http://www.w3.org/2000/svg" xmlns:xlink="http://www.w3.org/1999/xlink" x="0px" y="0px"
	 viewBox="0 0 92 92" style="enable-background:new 0 0 92 92;" xml:space="preserve">
<style type="text/css">
	.st0{fill:#CED7DB;}
	.st1{fill:#263238;}
	.st2{fill:#96A8B2;}
	.st3{fill:#73F804;}
</style>
<path class="st0" d="M78.1,84.2H13.3c-3.2,0-5.8-2.6-5.8-5.8V13.6c0-3.2,2.6-5.8,5.8-5.8h64.8c3.2,0,5.8,2.6,5.8,5.8v64.8
	C83.8,81.6,81.3,84.2,78.1,84.2z"/>
<path class="st1" d="M72.8,80.7H18.2c-3.2,0-5.8-2.6-5.8-5.8V29.8c0-3.2,2.6-5.8,5.8-5.8h54.6c3.2,0,5.8,2.6,5.8,5.8V75
	C78.5,78.1,76,80.7,72.8,80.7z"/>
<circle class="st2" cx="16.4" cy="16.4" r="3.2"/>
<circle class="st2" cx="26.5" cy="16.4" r="3.2"/>
<g>
	<path class="st3" d="M29.4,59.1l-7.1-7.7l7.1-7.7h7.5l-7.1,7.7l7.1,7.7H29.4z"/>
	<path class="st3" d="M51.5,37.9l-7.2,30.7h-4.5l7.2-30.7H51.5z"/>
	<path class="st3" d="M54,43.6h7.5l7.1,7.7l-7.1,7.7H54l7.1-7.7L54,43.6z"/>
</g>
</svg>
