<?xml version="1.0" encoding="utf-8"?>
<!-- Generator: Adobe Illustrator 25.4.1, SVG Export Plug-In . SVG Version: 6.00 Build 0)  -->
<svg version="1.1" id="Capa_1" xmlns="http://www.w3.org/2000/svg" xmlns:xlink="http://www.w3.org/1999/xlink" x="0px" y="0px"
	 viewBox="0 0 96 96" style="enable-background:new 0 0 96 96;" xml:space="preserve">
<style type="text/css">
	.st0{fill:#FDFDFD;}
	.st1{fill:#FFD400;}
	.st2{fill:#138FDC;}
	.st3{fill:#D42E58;}
	.st4{fill:#2EB474;}
	.st5{fill:#9B30CB;}
	.st6{fill:#F4F4F4;}
</style>
<g>
	<path class="st0" d="M48,95.9c-15.1,0-30.2,0-45.4,0.1c-2,0-2.6-0.2-2.6-2.5C0.1,63.3,0.1,33,0,2.7C0,0.2,0.7,0,2.9,0
		C33,0.1,63,0.1,93.1,0C95.3,0,96,0.2,96,2.7c-0.1,30.3-0.1,60.5,0,90.8c0,2.2-0.6,2.5-2.6,2.5C78.2,95.9,63.1,95.9,48,95.9z
		 M19.9,20C11.8,27.6,8.3,37.2,8.2,48.2C7.8,69.9,25.9,87.8,48,87.8c11,0.1,20.5-3.6,28-11.8c15.8-14.7,15.8-40.8,0-56.2
		C61.1,4.1,35.3,4.1,19.9,20z"/>
	<path class="st1" d="M76,19.8C91.8,35.2,91.8,61.3,76,76c-4.6-4.6-9.2-9.3-13.7-13.9c7.7-8.5,7.8-18.4-0.3-28.6
		C66.6,28.9,71.3,24.4,76,19.8z"/>
	<path class="st2" d="M48,87.8C25.9,87.8,7.8,69.9,8.2,48.2c6.6,0,13.2,0,19.8,0c1.7,12.5,7.7,18.5,19.9,19.8
		C47.9,74.6,48,81.2,48,87.8z"/>
	<path class="st3" d="M76,19.8c-4.7,4.5-9.4,9.1-14.1,13.6c-10.6-7.4-17.5-7.4-27.9,0c-4.7-4.5-9.4-9-14.1-13.5
		C35.3,4.1,61.1,4.1,76,19.8z"/>
	<path class="st4" d="M48,87.8c0-6.6,0-13.2-0.1-19.8c5.4-0.4,10.1-2.6,14.3-5.9c4.6,4.6,9.2,9.3,13.7,13.9
		C68.4,84.2,59,87.9,48,87.8z"/>
	<path class="st5" d="M19.9,20c4.7,4.5,9.4,9,14.1,13.5c-3.5,4.3-6.1,8.9-6.1,14.7c-6.6,0-13.2,0-19.8,0C8.3,37.2,11.8,27.6,19.9,20
		z"/>
	<path class="st0" d="M28,48.1c0-5.7,2.5-10.4,6.1-14.7c10.3-7.3,17.2-7.3,27.9,0c8.1,10.2,8,20.1,0.3,28.6
		c-4.2,3.4-8.9,5.5-14.3,5.9C35.7,66.6,29.7,60.6,28,48.1z"/>
</g>
<ellipse class="st6" cx="48" cy="47.9" rx="21.6" ry="22.5"/>
</svg>
