<?xml version="1.0" encoding="utf-8"?>
<!-- Generator: Adobe Illustrator 25.4.1, SVG Export Plug-In . SVG Version: 6.00 Build 0)  -->
<svg version="1.1" id="Capa_1" xmlns="http://www.w3.org/2000/svg" xmlns:xlink="http://www.w3.org/1999/xlink" x="0px" y="0px"
	 viewBox="0 0 96 96" style="enable-background:new 0 0 96 96;" xml:space="preserve">
<style type="text/css">
	.st0{fill:#FEFEFE;}
	.st1{fill:#BBBDBF;}
	.st2{fill:#F85568;}
	.st3{fill:#CD0D24;}
	.st4{fill:#FDDD01;}
	.st5{fill:#F7BD01;}
	.st6{fill:#FE8DB5;}
	.st7{fill:#3CCAF3;}
	.st8{fill:#30DB80;}
	.st9{fill:#0A68B5;}
	.st10{fill:#24B268;}
	.st11{fill:#D4DCDD;}
	.st12{fill:#184685;}
	.st13{fill:#C7CCCF;}
	.st14{fill:#D2DEDE;}
	.st15{fill:#C7CCD0;}
	.st16{fill:#D7DEDC;}
	.st17{fill:#D6DEE1;}
	.st18{fill:#F88C3A;}
	.st19{fill:#0D8646;}
	.st20{fill:#4C606A;}
</style>
<g>
	<path class="st0" d="M0.1,0.1c30.8,0,61.6,0.1,92.3-0.1c3,0,3.6,0.6,3.6,3.6c-0.1,29.6-0.1,59.2,0,88.8c0,3-0.6,3.6-3.6,3.6
		c-29.6-0.1-59.2-0.1-88.8,0c-3,0-3.6-0.6-3.6-3.6C0.1,61.6,0.1,30.9,0.1,0.1z"/>
	<path class="st1" d="M30.1,85.9c-4.3,0-8.6,0-12.9,0.1c-3.5,0-5.2-1.6-5.1-5.2c0.1-5,0.1-10,0.1-14.9c6.5-2.6,13.1-1.8,19.7-0.4
		c2.9,3.9,1.2,8.3,1.5,12.4c0,0.9,0,1.7-0.1,2.6C33.3,82.9,32.4,84.8,30.1,85.9z"/>
	<path class="st2" d="M12.2,45.9c0-5.3,0-10.5,0-15.8c6.6-2.6,13.2-2.6,19.7,0c0.1,3.3,0.2,6.5,0.3,9.8c1.5,2.2,1.4,4.3-0.1,6.5
		C25.4,48.1,18.8,48.7,12.2,45.9z"/>
	<path class="st3" d="M32,66c-6.6,0-13.2-0.1-19.8-0.1c0-5.3,0-10.5,0-15.8c6.9-2.4,13.8-3.3,20.6,0.6C33.8,55.9,34.7,61,32,66z"/>
	<path class="st4" d="M40.2,27.9c1.2-3.8,3.7-6.9,5.8-10.3c1.4-2.3,3.4-3,5.9-1.5c0.3,0.2,0.6,0.3,0.9,0.5
		C65,23.1,65,23.1,57.9,36.9c-0.8,0.8-1.8,1.1-2.7,0.7C49.9,34.9,44.3,32.6,40.2,27.9z"/>
	<path class="st5" d="M32,45.9c0.1-2,0.1-4,0.2-6c1.9-2.9,3.9-5.9,5.8-8.8c6.8,1.4,12.3,5,16.9,10.1c-0.8,1.6-1.5,3.1-2.3,4.7
		c-0.9,4-2.4,7.6-6.5,9.5c-4.1-1.7-7.6-4.3-11.4-6.5C33.7,48,32.3,47.4,32,45.9z"/>
	<path class="st6" d="M12.2,26c0-3.6-0.1-7.3-0.1-10.9c0-3.2,1.5-5,4.8-5c3.5,0,7,0,10.4,0c3.3,0,4.8,1.8,4.8,5
		c0,3.6-0.1,7.3-0.1,10.9C25.3,28.5,18.8,28.5,12.2,26z"/>
	<path class="st7" d="M72.1,66.1C75.7,66,79.3,66,83,66c6.1,0.1,5.3,4.7,4.8,8.2C87.2,78.4,91.2,85,83,85.9c-3.6,0.4-7.3,0-10.9,0
		C69.4,79.2,69.4,72.7,72.1,66.1z"/>
	<path class="st8" d="M61.1,41.1c3-1.8,6-3.5,9-5.3c2.9-1.7,5.2-1.2,7.1,1.8c8,12,8,11.9-5.3,20.5c-0.6,0.4-1.4,0.6-1.8,0.1
		C66.2,52.9,61.6,48.1,61.1,41.1z"/>
	<path class="st9" d="M67.8,85.9c-5.2,0-10.5,0-15.7,0c-2.4-6.1-3.1-12.2,0.7-18.1c2-1.1,3.9-2.7,6.4-1.9c2.9,0.1,5.8,0.2,8.6,0.2
		C70.5,72.6,70.5,79.3,67.8,85.9z"/>
	<path class="st10" d="M59.2,65.8c-1.8,0.8-3.6,1.6-5.4,2.4c-4.9-2.7-6.4-7.7-8.3-12.4c-0.2-0.5,0.5-0.7,1-0.8
		c2-3.1,4.1-6.1,6.1-9.2c1.1-0.6,2.3-1.3,3.4-1.9c0.4-0.3,0.9-0.5,1.4-0.3c3.5,1.5,10,13.2,9.6,17.3C64.4,62.6,61.8,64.2,59.2,65.8z
		"/>
	<path class="st11" d="M46.5,55c1.3,5,4.5,9,7.3,13.2c-2.1,1.2-1.9,3.2-1.9,5.2c0.1,4.1,0.1,8.3,0.1,12.4c-1.4,0-2.8,0-4.2,0
		c-2.3-4-1.2-8.2-1-12.4c1.4-2.8,0.9-5.3-0.9-7.9c-1-1.5-2.1-3-2.6-4.8c-0.3-0.9,1-2-1.1-2.9c-3.6-1.6-7.7-2.9-9.7-7
		c-0.1-1.7,0.2-3.1,2.4-2.9C39,50,42.9,52.3,46.5,55z"/>
	<path class="st12" d="M47.9,72.1c0,4.6,0,9.2,0,13.7c-5.9,0-11.8,0-17.8,0c0.7-1.6,2.2-2.9,2.1-4.9C36.9,77.2,41.6,73.3,47.9,72.1z
		"/>
	<path class="st13" d="M34.9,48c-1.3,0.6-1.9,1.7-1.9,3.1c-0.3,0.4-0.6,0.3-0.8-0.1c-6.6-2.1-13.4-0.5-20-0.9c0-1.4,0-2.8,0-4.2
		c6.6,0,13.2,0,19.9,0C33,46.6,34,47.3,34.9,48z"/>
	<path class="st14" d="M66.9,61c-2.9-6.2-5.1-12.8-11-17c1.7-1,3.4-1.9,5.1-2.9c3.3,5.9,5.6,12.4,10.9,17C70.3,59,68.6,60,66.9,61z"
		/>
	<path class="st15" d="M12.2,26c6.6,0,13.2,0,19.7,0c0,1.4,0,2.8,0,4.1c-6.6,0-13.2,0-19.7,0C12.2,28.7,12.2,27.4,12.2,26z"/>
	<path class="st16" d="M54.9,41.2c-5.6-3.4-11.3-6.7-16.9-10.1c0.6-1.1,0.9-2.5,2.2-3.2c4.2,2.4,8.5,4.9,12.7,7.3
		c1.5,0.9,2.9,2.4,4.9,1.7C56.9,38.3,55.9,39.7,54.9,41.2z"/>
	<path class="st17" d="M67.8,85.9c0-6.6,0-13.2,0-19.8c1.4,0,2.8,0,4.2,0c0,6.6,0,13.2,0,19.8C70.7,85.9,69.3,85.9,67.8,85.9z"/>
	<path class="st18" d="M32.2,51c0.3,0,0.5,0.1,0.8,0.1c3.1,1.9,6.1,3.9,9.2,5.6c1.6,0.9,2.7,1.9,1.7,3.8
		c-2.7,6.9-5.7,13.6-11.6,18.4c-0.1-4.3-0.2-8.6-0.3-13C32,61,32.1,56,32.2,51z"/>
	<path class="st19" d="M32.3,78.9c3.9-6.1,7.7-12.3,11.6-18.4c2.4,2.3,3.4,5.6,5.3,8.2c1.4,1.9,0,2.6-1.3,3.3
		C42.6,75,37.8,78.7,32.2,81C32.2,80.3,32.2,79.6,32.3,78.9z"/>
	<path class="st20" d="M23.9,76c-0.2,1.1-0.8,1.8-2,1.7c-1.1-0.1-1.8-0.8-1.7-1.9c0.1-1.1,0.8-1.8,1.9-1.7
		C23.3,74.2,23.8,74.9,23.9,76z"/>
</g>
</svg>
