<?xml version="1.0" encoding="utf-8"?>
<!-- Generator: Adobe Illustrator 25.4.1, SVG Export Plug-In . SVG Version: 6.00 Build 0)  -->
<svg version="1.1" id="Capa_1" xmlns="http://www.w3.org/2000/svg" xmlns:xlink="http://www.w3.org/1999/xlink" x="0px" y="0px"
	 viewBox="0 0 906.4 408.5" style="enable-background:new 0 0 906.4 408.5;" xml:space="preserve">
<style type="text/css">
	.st0{fill:#007BF9;}
	.st1{fill:#F1F1F1;}
</style>
<g>
	<g>
		<path class="st0" d="M186.8,54.6h55c2.5,0,4.4,2.1,4.4,4.6v224.1c0,2.5-2,4.6-4.4,4.6H185c-1.6,0-3.1-0.9-3.9-2.3l-71.3-129.2v127
			c0,2.5-2,4.6-4.4,4.6h-55c-2.5,0-4.4-2.1-4.4-4.6V59.1c0-2.5,2-4.6,4.4-4.6h57c1.5,0,3,0.8,3.8,2.1l71.3,117.8V59.1
			C182.4,56.6,184.4,54.6,186.8,54.6z"/>
		<path class="st0" d="M493.8,172.9c0,67.2-53.9,121.8-120.5,121.8s-120.5-54.5-120.5-121.8s54-121.8,120.6-121.8
			S493.8,105.6,493.8,172.9z M428.5,172.9c0-30.8-24.7-55.7-55.1-55.7c-30.5,0-55.1,25-55.1,55.7s24.7,55.7,55.1,55.7
			C403.8,228.6,428.5,203.7,428.5,172.9z"/>
		<path class="st0" d="M634.2,57.5c0.6-1.8,2.3-3,4.2-3h55.8c2.5,0,4.4,2.1,4.4,4.6v1.5c0,0.5-0.1,1.1-0.3,1.6l-80.5,222.7
			c-0.6,1.8-2.3,3-4.2,3h-56c-1.8,0-3.5-1.2-4.2-3L473.1,62.1c-0.2-0.5-0.3-1-0.3-1.6V59c0-2.5,2-4.5,4.4-4.5H533
			c1.8,0,3.5,1.2,4.2,3l48.5,133.8L634.2,57.5z"/>
		<path class="st0" d="M786.7,57.5l80.5,222.7c0.2,0.5,0.3,1,0.3,1.6v1.5c0,2.5-2,4.5-4.4,4.5h-55.8c-1.8,0-3.5-1.2-4.2-3L791,251.4
			h-72.7l-12.2,33.5c-0.6,1.8-2.3,3-4.2,3H646c-2.5,0-4.4-2-4.4-4.6v-1.5c0-0.5,0.1-1.1,0.3-1.6l80.5-222.7c0.6-1.8,2.3-3,4.2-3h56
			C784.4,54.6,786.1,55.7,786.7,57.5z M770.3,194.1L754.5,151L739,194.1H770.3z"/>
	</g>
	<path class="st1" d="M41,236c65.9-16.5,171-25.6,410.4-34.8c87.1-3.3,363.7,0,397.5,10.6c-0.6-4.4,0.2,0.7-0.6-4.4
		c-0.9-6.3-4-11.2-9.7-11.8c-631-60.8-824.7,31.6-797.6,31.6C43.8,227.2,33,238,41,236z"/>
</g>
<g>
	<path class="st0" d="M87.6,343.1c0,0.6-0.5,1.1-1.1,1.1h-12v41.1c0,0.6-0.5,1.1-1.1,1.1H60.2c-0.6,0-1.1-0.5-1.1-1.1v-41.1h-12
		c-0.6,0-1.1-0.5-1.1-1.1v-11c0-0.6,0.5-1.1,1.1-1.1h39.5c0.6,0,1.1,0.5,1.1,1.1V343.1z"/>
	<path class="st0" d="M125.5,385.3v-53.3c0-0.6,0.5-1.1,1.1-1.1h32.3c0.6,0,1.1,0.5,1.1,1.1v11.1c0,0.6-0.5,1.1-1.1,1.1h-17.9v7.9
		h15.5c0.6,0,1.1,0.5,1.1,1.1v11.1c0,0.6-0.5,1.1-1.1,1.1h-15.5v7.9h17.9c0.6,0,1.1,0.5,1.1,1.1v11.1c0,0.6-0.5,1.1-1.1,1.1h-32.3
		C126,386.4,125.5,385.9,125.5,385.3z"/>
	<path class="st0" d="M246.5,375.7c0.5,0.4,0.6,1.1,0.2,1.5c-5.3,6.6-13.4,10.8-22.5,10.8c-15.9,0-28.8-13-28.8-28.9
		c0-16,12.9-28.9,28.8-28.9c9.1,0,17.1,4.2,22.4,10.8c0.4,0.5,0.3,1.1-0.2,1.5l-10.6,8.5c-0.4,0.4-1.1,0.3-1.4-0.1
		c-2.5-2.8-6.3-4.9-10.2-4.9c-7.3,0-13.2,5.9-13.2,13.2s5.9,13.2,13.2,13.2c4,0,7.8-2.1,10.3-5c0.4-0.4,1-0.5,1.5-0.1L246.5,375.7z"
		/>
	<path class="st0" d="M320.4,331h13.3c0.6,0,1.1,0.5,1.1,1.1v53.3c0,0.6-0.5,1.1-1.1,1.1h-13.3c-0.6,0-1.1-0.5-1.1-1.1v-20h-19.2v20
		c0,0.6-0.5,1.1-1.1,1.1h-13.3c-0.6,0-1.1-0.5-1.1-1.1v-53.3c0-0.6,0.5-1.1,1.1-1.1h13.3c0.6,0,1.1,0.5,1.1,1.1v20h19.2v-20
		C319.4,331.5,319.8,331,320.4,331z"/>
	<path class="st0" d="M406.6,331h13.3c0.6,0,1.1,0.5,1.1,1.1v53.2c0,0.6-0.5,1.1-1.1,1.1h-13.7c-0.4,0-0.7-0.2-0.9-0.5L388,355.2
		v30.2c0,0.6-0.5,1.1-1.1,1.1h-13.3c-0.6,0-1.1-0.5-1.1-1.1v-53.3c0-0.6,0.5-1.1,1.1-1.1h13.7c0.4,0,0.7,0.2,0.9,0.5l17.2,28v-27.4
		C405.5,331.5,406,331,406.6,331z"/>
	<path class="st0" d="M516.9,359.1c0,16-13,28.9-29.1,28.9c-16.1,0-29.1-13-29.1-28.9c0-16,13-28.9,29.1-28.9
		C503.9,330.2,516.9,343.1,516.9,359.1z M501.1,359.1c0-7.3-6-13.2-13.3-13.2c-7.3,0-13.3,5.9-13.3,13.2s6,13.2,13.3,13.2
		C495.2,372.4,501.1,366.4,501.1,359.1z"/>
	<path class="st0" d="M586.5,386.4h-30.6c-0.6,0-1.1-0.5-1.1-1.1v-53.3c0-0.6,0.5-1.1,1.1-1.1h13.3c0.6,0,1.1,0.5,1.1,1.1v41.4h16.3
		c0.6,0,1.1,0.5,1.1,1.1v10.7C587.5,385.9,587,386.4,586.5,386.4z"/>
	<path class="st0" d="M679.9,359.1c0,16-13,28.9-29.1,28.9c-16.1,0-29.1-13-29.1-28.9c0-16,13-28.9,29.1-28.9
		C666.9,330.2,679.9,343.1,679.9,359.1z M664.1,359.1c0-7.3-6-13.2-13.3-13.2c-7.3,0-13.3,5.9-13.3,13.2s6,13.2,13.3,13.2
		C658.2,372.4,664.1,366.4,664.1,359.1z"/>
	<path class="st0" d="M775.9,353.6v5.5v0c0,16-13,28.9-29.1,28.9s-29.1-13-29.1-28.9c0-16,13-28.9,29.1-28.9
		c9.5,0,17.8,4.5,23.1,11.5c0.4,0.5,0.3,1.2-0.2,1.5l-11.1,8.4c-0.5,0.4-1.1,0.3-1.5-0.2c-2.4-3.3-6.3-5.5-10.7-5.5
		c-7.3,0-13.2,5.9-13.2,13.2c0,7.3,5.9,13.2,13.2,13.2c4.9,0,9.1-2.7,11.4-6.6H745c-0.6,0-1.1-0.5-1.1-1.1v-11.1
		c0-0.6,0.5-1.1,1.1-1.1h29.8C775.4,352.5,775.9,353,775.9,353.6z"/>
	<path class="st0" d="M844.5,332.1c0-0.6,0.5-1.1,1.1-1.1h13.5c0.6,0,1.1,0.5,1.1,1.1c0,28.1-17.2,31.5-17.2,31.5v21.7
		c0,0.6-0.5,1.1-1.1,1.1h-13.3c-0.6,0-1.1-0.5-1.1-1.1v-21.7c0,0-17.2-3.4-17.2-31.5c0-0.6,0.5-1.1,1.1-1.1H825
		c0.6,0,1.1,0.5,1.1,1.1c0.3,21.1,8.7,20.3,9.2,20.3C835.8,352.4,844.2,353.1,844.5,332.1z"/>
</g>
</svg>
