<?xml version="1.0" encoding="utf-8"?>
<!-- Generator: Adobe Illustrator 25.4.1, SVG Export Plug-In . SVG Version: 6.00 Build 0)  -->
<svg version="1.1" id="Capa_1" xmlns="http://www.w3.org/2000/svg" xmlns:xlink="http://www.w3.org/1999/xlink" x="0px" y="0px"
	 viewBox="0 0 96 96" style="enable-background:new 0 0 96 96;" xml:space="preserve">
<style type="text/css">
	.st0{fill:#FEFEFE;}
	.st1{fill:#FDCD49;}
	.st2{fill:#F4BD00;}
	.st3{fill:#9EA7AF;}
	.st4{fill:#717C85;}
	.st5{fill:#929BA2;}
	.st6{fill:#959DA5;}
	.st7{fill:#1FB4DF;}
	.st8{fill:#C1530A;}
	.st9{fill:#979FA7;}
	.st10{fill:#5E646C;}
	.st11{fill:#1D97E9;}
	.st12{fill:#1B7FF0;}
	.st13{fill:#1863F9;}
</style>
<g>
	<path class="st0" d="M53.9,95.9C37,95.9,20,95.8,3.1,96C0.6,96,0,95.4,0,92.9C0.1,63,0.1,33,0,3.1C0,0.6,0.6,0,3.1,0
		C33,0.1,62.9,0.1,92.8,0c2.5,0,3.1,0.6,3.1,3.1C95.7,19,95.8,35,95.8,51c-3,0.8-6,0.9-8.6-1.3c-1.8-4.8-0.7-9.8-0.9-14.8
		c-0.2-4.5-0.1-8.9,0-13.4c0.1-4.2-1.8-5.9-6-5.9c-8.1,0-16.2,0.1-24.3-0.1c-12.9,0.2-25.9,0-38.8,0.1c-6.8,0.1-7.5,0.7-7.5,7.4
		c0,13-0.1,25.9,0,38.9c0,1.5,0,3,0.7,4.4c0.6,3.2-2.2,4.6-3.5,6.8c-1.1,1.9-3.6,3.1-2.9,5.9c2.1,2,4.7,1.4,7.1,1.4
		c11.9,0.1,23.8,0,35.8,0.1c2.5,0,5-0.3,7.2,1.2c2.1,3.1,1.3,6.6,1.3,10C55.3,93.1,55,94.7,53.9,95.9z"/>
	<path class="st1" d="M87.9,49.8c2.6,0.6,5.5-0.6,7.9,1.2c0,13.6,0,27.3,0,40.9c-1.4,1.3-3.2,1.5-5.1,1.6c-10.5,0.1-21.1,0.1-31.6,0
		c-1.8,0-3.6-0.1-5.1-1.5c-0.1-3.3-0.2-6.6-0.3-10c-1.7-2.3-1.2-5-1.2-7.6c0-1.7-0.1-3.4,0-5.1c0-0.6,0-1.2,0-1.7
		c-0.1-1.5,0-3-0.1-4.5c-0.2-2.6-0.2-5.3,0-7.9c0.3-4.9,1.8-6.5,6.7-6.6c8.1-0.2,16.1-0.3,24.2,0C85,48.6,86.6,48.7,87.9,49.8z"/>
	<path class="st2" d="M54.1,92c13.9,0,27.8,0,41.7-0.1c0.8,3.4-0.6,4.2-4,4.1c-12.6-0.3-25.3-0.1-37.9-0.1C54,94.6,54,93.3,54.1,92z
		"/>
	<path class="st3" d="M10,67.9c-1.1-1.7-2-3.2-2-5.4C8.1,48.2,8.1,34,8,19.7c0-3.6,1.3-5.7,5.2-5.7c14.2,0.1,28.5,0.1,42.7,0.2
		c1.3,2.1,0.4,3.5-1.4,4.6c-4.2,1.3-8.5,0.6-12.7,0.7c-7.8,0.1-15.5,0.1-23.3,0c-3.6,0-5.1,1.4-5,5c0.1,4.5,0.1,8.9,0,13.4
		c0.1,4.6,0.1,9.1-0.1,13.7c0,3.5,0.2,7-0.3,10.5c-0.6,1.8-0.7,3.8-1.7,5.5C11,68,10.6,68.1,10,67.9z"/>
	<path class="st4" d="M10,67.9c0.4,0,0.7,0,1.1,0c0.3-0.1,0.6-0.1,0.9-0.2c12.4-0.3,24.8-0.1,37.2-0.1c1.7,0,3.3,0.1,4.6,1.4
		c0,1.7,0,3.3,0,5c-2.9,2.3-6.3,1.4-9.6,1.5c-3.4,0.1-6.6,0.1-9.4,2.5c-1.3,1.1-3,1.4-4.7,1.4c-8,0.2-15.9,0.2-23.9,0
		c-1.5,0-3-0.3-4.1-1.5C3.8,73.7,6.7,70.7,10,67.9z"/>
	<path class="st5" d="M2.2,77.9c9.1,0,18.2,0,27.3,0c1.2,0,2.8,0.3,3.4-0.3c6-6.9,13.9-2.5,20.9-3.7c0,2.7,0,5.4,0,8
		c-15.6,0-31.1-0.1-46.7,0C4.3,81.9,1.4,82.1,2.2,77.9z"/>
	<path class="st6" d="M54.9,17.9c0.7-1.1,1.1-2.3,1-3.7c8.8-0.1,17.6,0,26.4-0.2c4.1-0.1,5.5,2,5.5,5.9c-0.1,10,0,20,0,29.9
		c-1.4,0-2.8,0-4.1,0c-2.6-3.9-1.1-8.3-1.4-12.4c-0.2-1.9-0.1-3.9,0.1-5.9c0-1,0-2,0-2.9c0-9,0-9-9-9.1c-4.1-0.1-8.3,0.3-12.4,0.1
		C58.8,19.5,56.5,19.8,54.9,17.9z"/>
	<path class="st7" d="M83.7,31c0,6.3,0,12.5,0.1,18.8c-8.4,0-16.9,0.2-25.3,0.1c-3.4-0.1-4.8,1-4.6,4.6c0.2,3.1,0,6.3-0.1,9.4
		c-1,1-2.2,1.5-3.5,1.5c-9,0-18,0.7-27-0.4c-3.7-2.3-1-4.2,0.5-6c7.5-8.6,16.8-15.1,26.9-20.2c8.2-4.1,16.9-6.9,25.9-8.6
		C79,29.8,81.5,29.1,83.7,31z"/>
	<path class="st8" d="M74.6,75.2c-5.2-0.1-8.6-2.9-10-8c-0.7-2.5-0.2-5.2-2-7.6c-1.4-1.8-0.1-3.5,1.4-4.7c1.1-0.9,2.5-1.3,3.7-0.2
		c1.5,1.2,2.5,2.7,1.4,4.8c-0.7,1.3-1.4,2.6-1.4,4.2c-0.1,3.4,0.6,6.5,4,7.8c2.9,1.1,5.9,1.1,8.3-1.4c2.6-2.6,2.3-5.7,1.5-8.8
		c-0.2-0.8-1-1.3-1.3-2.1c-0.6-1.8,0.3-3.2,1.8-4.3c1.2-0.8,2.5-1.2,3.7-0.2c1.3,1.1,2.6,2.6,1.5,4.3c-1.7,2.5-1.4,5.4-2.1,8.1
		C83.7,72.5,80.1,75.3,74.6,75.2z"/>
	<path class="st9" d="M22,63.8c10.6,0,21.2,0.1,31.8,0.1c0,1.3,0,2.7,0,4c-4.1,1.2-8.2,0.5-12.3,0.5c-10.1,0-20.2,0.5-30.4-0.3
		c0,0-0.1-0.2-0.1-0.2c0.2-1.7-0.6-3.5,0.8-4.9C15.3,62.4,18.8,61.8,22,63.8z"/>
	<path class="st10" d="M11.1,68.1c14.2-0.1,28.5-0.2,42.7-0.2c0,0.4,0,0.7,0,1.1c-12.5,0-25,0-37.5,0C14.5,68.9,12.6,69.5,11.1,68.1
		z"/>
	<path class="st11" d="M22,63.8c-3.4-0.2-6.9,1.2-10.1-0.8c0.1-3.7,0.2-7.3,0.3-11C21.9,41,33.7,33,47,26.9c8.6-4,17.7-6.5,26.9-8.7
		c10.1-0.5,10.1-0.5,10,9.4c0,1.1-0.1,2.3-0.1,3.4C65.8,32,50.2,39,36,49.5C30.6,53.5,25.4,57.8,22,63.8z"/>
	<path class="st12" d="M73.8,18.2c-1,2.1-3.3,2.3-5.1,2.7C53.5,24.2,39.6,30.7,27.1,40c-3.7,2.7-7.1,6-10.6,9c-1.4,1.2-2.3,3-4.4,3
		c0-4.7,0-9.3,0-14c5.4-6.4,12.7-10.3,19.6-14.6c3.2-2,6.7-3.6,10.1-5.2c4.3-0.1,8.7-0.2,13-0.3C61.2,18,67.5,18.1,73.8,18.2z"/>
	<path class="st13" d="M41.9,18.2c-0.6,0.7-1.1,1.8-1.9,2.2c-10.1,4.5-18.6,11.5-27.8,17.6c-0.1-5.4,0-10.9-0.2-16.3
		c-0.1-2.9,1-3.7,3.7-3.6C24.4,18.2,33.2,18.1,41.9,18.2z"/>
</g>
</svg>
